<svg width="800" height="600" xmlns="http://www.w3.org/2000/svg" style="vector-effect: non-scaling-stroke;" stroke="null">
 <g stroke="null">
  <title stroke="null">Layer 1</title>
  <path stroke="#000" fill="#fff" opacity="NaN" d="m-372,465" id="svg_3"/>
  <line stroke="#000" fill="none" x1="448.34541" y1="223.13593" x2="448.34541" y2="376.69686" id="svg_6" stroke-width="10"/>
  <line stroke="#000" fill="none" x1="351.86421" y1="223.13593" x2="351.86421" y2="376.69686" id="svg_7" stroke-width="10"/>
  <path stroke="#000" fill="none" stroke-width="10" opacity="NaN" d="m448.58945,223.59023" id="svg_10"/>
  <path stroke="#000" fill="none" stroke-width="10" opacity="NaN" d="m481.4399,282.95486" id="svg_13"/>
  <path stroke="#000" fill="none" stroke-width="10" opacity="NaN" d="m449.6217,227.273c73.48489,66.88153 18.18183,131.43948 0.37855,145.07569" id="svg_18"/>
  <path stroke="#000" fill="none" stroke-width="10" opacity="NaN" d="m350.00041,227.65179c-74.28729,66.88153 -18.38036,131.43948 -0.38268,145.07569" id="svg_19"/>
  <line stroke="#000" fill="none" stroke-width="10" x1="353.40953" y1="270.83364" x2="446.97019" y2="270.83364" id="svg_20"/>
  <line stroke="#000" fill="none" stroke-width="10" x1="350.75801" y1="329.16701" x2="449.24292" y2="328.78822" id="svg_21"/>
  <path stroke="#000" fill="none" stroke-width="10" opacity="NaN" d="m542.33994,306.47912c-16.43542,-40.75229 -103.14112,-190.65425 -270.9279,-54.03831c-21.65368,16.31645 -40.76056,30.13069 -65.37678,34.64066" id="svg_22"/>
  <path stroke="#000" fill="none" stroke-width="10" opacity="NaN" d="m265.91941,320.17758c15.71353,31.72593 98.61086,148.42561 259.02796,42.06919c20.70258,-12.70247 38.97023,-23.45695 62.50524,-26.96799" id="svg_1"/>
 </g>

</svg>